<svg width="111" height="24" viewBox="0 0 111 24" fill="none" xmlns="http://www.w3.org/2000/svg">
<path d="M42.8363 15.6138V11.3695C42.8363 9.76803 41.8054 8.6899 40.1466 8.67581C39.1842 8.61418 38.2643 9.07588 37.7451 9.88114C37.2719 9.09971 36.4054 8.63723 35.4864 8.67581C34.6872 8.63762 33.9272 9.02057 33.4877 9.68309V8.83423H32V15.6138H33.502V11.8591C33.502 10.6819 34.1587 10.0595 35.1753 10.0595C36.1917 10.0595 36.6629 10.696 36.6629 11.8449V15.6138H38.1563V11.8591C38.1563 10.6819 38.8416 10.0595 39.8296 10.0595C40.8176 10.0595 41.3314 10.696 41.3314 11.8449V15.6138H42.8363ZM65.0601 8.83989H62.6302V6.78569H61.1281V8.83989H59.7404V10.1868H61.1281V13.2738C61.1281 14.8469 61.7421 15.7836 63.5011 15.7836C64.1579 15.7857 64.8022 15.6043 65.3599 15.2602L64.9316 13.9981C64.5325 14.2337 64.0796 14.3651 63.6153 14.3801C62.8728 14.3801 62.6273 13.9274 62.6273 13.2484V10.1868H65.0573L65.0601 8.83989ZM77.7467 8.67015C77.0078 8.64882 76.3163 9.02992 75.9449 9.66333V8.83989H74.4715V15.6138H75.9592V11.8166C75.9592 10.6848 76.4446 10.0735 77.4183 10.0735C77.7369 10.0691 78.0532 10.1267 78.3492 10.2434L78.8061 8.85412C78.4661 8.73362 78.1079 8.67133 77.7467 8.67015ZM58.5668 9.37757C57.7246 8.88164 56.7562 8.63617 55.7771 8.67015C54.0468 8.67015 52.9217 9.49359 52.9217 10.8376C52.9217 11.9439 53.7497 12.623 55.2803 12.8352L55.9799 12.9342C56.7936 13.0474 57.1819 13.2596 57.1819 13.6416C57.1819 14.1651 56.6394 14.465 55.6229 14.465C54.8028 14.4909 53.9979 14.2416 53.3386 13.7576L52.6619 14.9036C53.5281 15.5038 54.5663 15.8123 55.6229 15.7836C57.596 15.7836 58.741 14.8612 58.741 13.5737C58.741 12.3825 57.8386 11.7599 56.3539 11.5478L55.6543 11.4487C55.0119 11.3638 54.495 11.2365 54.495 10.7839C54.495 10.2886 54.9804 9.9915 55.797 9.9915C56.5453 10.0026 57.2784 10.2021 57.9273 10.5716L58.5668 9.37757ZM98.4056 8.67015C97.6668 8.64882 96.9754 9.02992 96.6039 9.66333V8.83989H95.1305V15.6138H96.6182V11.8166C96.6182 10.6848 97.1036 10.0735 98.0773 10.0735C98.3958 10.0691 98.7122 10.1267 99.0081 10.2434L99.4651 8.85412C99.1251 8.73362 98.7668 8.67133 98.4056 8.67015ZM79.2487 12.2269C79.2487 14.2811 80.6935 15.7836 82.895 15.7836C83.7878 15.8273 84.6646 15.5387 85.3535 14.9743L84.6397 13.783C84.1254 14.1711 83.4986 14.3846 82.8522 14.3914C81.6644 14.3914 80.7935 13.5256 80.7935 12.224C80.7935 10.9224 81.6672 10.0708 82.8522 10.0567C83.4986 10.0635 84.1254 10.2769 84.6397 10.6649L85.3535 9.4737C84.6646 8.90943 83.7878 8.62077 82.895 8.66449C80.6935 8.66449 79.2487 10.167 79.2487 12.2212V12.2269ZM93.1774 12.2269V8.83147H91.6897V9.65477C91.1751 8.99673 90.3705 8.62656 89.531 8.66172C87.6151 8.66172 86.1045 10.1501 86.1045 12.2183C86.1045 14.2867 87.6065 15.7751 89.531 15.7751C90.3705 15.8102 91.1751 15.4401 91.6897 14.7819V15.6024H93.1774V12.2269ZM87.6436 12.2269C87.6436 11.0356 88.4289 10.0595 89.7166 10.0595C90.9473 10.0595 91.7753 10.996 91.7753 12.2269C91.7753 13.4578 90.9473 14.3943 89.7166 14.3943C88.4289 14.3943 87.6436 13.4152 87.6436 12.2269ZM69.6944 8.67015C67.6957 8.67015 66.2907 10.1161 66.2907 12.2269C66.2907 14.3801 67.7499 15.7836 69.7943 15.7836C70.8153 15.8191 71.8134 15.4806 72.5984 14.8328L71.8702 13.7406C71.3024 14.1909 70.5987 14.4399 69.8714 14.4481C68.912 14.4481 68.0411 14.0094 67.8269 12.79H72.9038C72.9182 12.606 72.9325 12.422 72.9325 12.224C72.9325 10.1132 71.6018 8.66738 69.6858 8.66738L69.6944 8.67015ZM69.6659 9.98873C70.6253 9.98873 71.2393 10.5829 71.3963 11.6327H67.8527C68.0098 10.6536 68.6093 9.98873 69.6686 9.98873H69.6659ZM106.972 12.2269V6.11792H105.484V9.66044C104.97 9.0024 104.165 8.63222 103.326 8.66738C101.41 8.66738 99.8991 10.1557 99.8991 12.224C99.8991 14.2924 101.401 15.7807 103.326 15.7807C104.165 15.8159 104.97 15.4457 105.484 14.7875V15.6081H106.972V12.2269ZM108.711 14.9885C108.77 14.9882 108.828 14.9998 108.882 15.0225C108.934 15.0445 108.982 15.0762 109.022 15.1158C109.062 15.1547 109.094 15.2008 109.116 15.2516C109.163 15.3581 109.163 15.4789 109.116 15.5856C109.094 15.6363 109.062 15.6824 109.022 15.7213C108.982 15.7608 108.934 15.7925 108.882 15.8147C108.828 15.8376 108.77 15.8491 108.711 15.8487C108.533 15.8509 108.371 15.7472 108.3 15.5856C108.254 15.4789 108.254 15.3583 108.3 15.2516C108.344 15.1477 108.428 15.0654 108.534 15.0225C108.592 14.9986 108.654 14.9871 108.717 14.9885H108.711ZM108.711 15.7524C108.756 15.7532 108.801 15.7445 108.842 15.727C108.882 15.7101 108.917 15.6862 108.948 15.6563C109.08 15.5249 109.08 15.3123 108.948 15.1809C108.918 15.1509 108.882 15.1269 108.842 15.1102C108.801 15.0928 108.756 15.0841 108.711 15.0846C108.665 15.0841 108.619 15.0928 108.577 15.1102C108.404 15.1831 108.324 15.3811 108.398 15.552C108.414 15.5908 108.438 15.6263 108.468 15.6563C108.499 15.6866 108.536 15.7105 108.577 15.727C108.621 15.7453 108.669 15.7539 108.717 15.7524H108.711ZM108.737 15.2149C108.779 15.2118 108.822 15.2238 108.857 15.2488C108.885 15.2714 108.901 15.306 108.899 15.3422C108.9 15.3732 108.888 15.4031 108.865 15.4243C108.839 15.4473 108.806 15.4613 108.771 15.4639L108.902 15.6138H108.799L108.677 15.4639H108.637V15.6138H108.551V15.2176L108.737 15.2149ZM108.637 15.2884V15.3959H108.737C108.754 15.4011 108.773 15.4011 108.791 15.3959C108.804 15.3871 108.812 15.3721 108.811 15.3563C108.812 15.3405 108.804 15.3255 108.791 15.3167C108.773 15.3115 108.754 15.3115 108.737 15.3167L108.637 15.2884ZM101.444 12.2269C101.444 11.0356 102.229 10.0595 103.517 10.0595C104.748 10.0595 105.576 10.996 105.576 12.2269C105.576 13.4578 104.748 14.3943 103.517 14.3943C102.229 14.3943 101.444 13.4152 101.444 12.2269ZM51.2169 12.2269V8.83147H49.7292V9.65477C49.2146 9.0024 48.4142 8.63578 47.5792 8.67015C45.6632 8.67015 44.1527 10.1585 44.1527 12.2269C44.1527 14.2953 45.6546 15.7836 47.5792 15.7836C48.4186 15.8187 49.2232 15.4485 49.7378 14.7904V15.611H51.2255L51.2169 12.2269ZM45.6832 12.2269C45.6832 11.0356 46.4684 10.0595 47.7562 10.0595C48.9869 10.0595 49.815 10.996 49.815 12.2269C49.815 13.4578 48.9869 14.3943 47.7562 14.3943C46.4684 14.3943 45.6832 13.4181 45.6832 12.2269Z" fill="white"/>
<path d="M13.6962 5.96354C13.7956 5.8776 13.8967 5.79427 14.0004 5.71354C14.1033 5.79427 14.2053 5.8776 14.3047 5.96354C15.9969 7.43056 17.0692 9.58941 17.0692 12C17.0692 14.4097 15.9969 16.5686 14.3047 18.0356C14.2053 18.1215 14.1033 18.2049 14.0004 18.2865C13.8967 18.2049 13.7956 18.1215 13.6962 18.0356C12.0031 16.5686 10.9317 14.4097 10.9317 12C10.9317 9.58941 12.0031 7.43056 13.6962 5.96354Z" fill="white"/>
<path d="M14.5183 5.33681C15.7911 4.49219 17.3212 4 18.9654 4C23.4029 4 27 7.5816 27 12C27 16.4175 23.4029 20 18.9654 20C17.3212 20 15.7911 19.5069 14.5183 18.6623C14.5828 18.6094 14.6491 18.5564 14.7127 18.5026C16.6054 16.8628 17.6908 14.4922 17.6908 12C17.6908 9.50694 16.6054 7.13628 14.7118 5.49653C14.6491 5.44184 14.5828 5.38976 14.5183 5.33681Z" fill="white"/>
<path d="M13.4826 18.6623C13.4172 18.6094 13.3509 18.5564 13.2882 18.5026C11.3955 16.8628 10.3101 14.4931 10.3101 12C10.3101 9.50694 11.3955 7.13628 13.2882 5.49653C13.3509 5.44184 13.4172 5.38976 13.4826 5.33681C12.2089 4.49219 10.6797 4 9.0346 4C4.59709 4 1 7.5816 1 12C1 16.4175 4.59709 20 9.0346 20C10.6797 20 12.2089 19.5069 13.4826 18.6623Z" fill="white"/>
<path d="M26.7489 16.6467V16.9566H26.6914V16.7222L26.6033 16.9245H26.544L26.456 16.7231V16.9566H26.3985V16.6467H26.4795L26.5737 16.8602L26.667 16.6467H26.7489Z" fill="white"/>
<path d="M26.2328 16.6997V16.9566H26.1761V16.6997H26.0715V16.6467H26.3374V16.6997H26.2328Z" fill="white"/>
</svg>
